<svg xmlns="http://www.w3.org/2000/svg" width="305" height="121" viewBox="0 0 305 121">
  <g id="그룹_458" data-name="그룹 458" transform="translate(-439.5 -1266.5)">
    <line id="선_13" data-name="선 13" x2="304" transform="translate(440 1387)" fill="none" stroke="#f1f1f1" stroke-linecap="round" stroke-width="1"/>
    <line id="선_15" data-name="선 15" x2="304" transform="translate(440 1339)" fill="none" stroke="#f1f1f1" stroke-linecap="round" stroke-width="1"/>
    <line id="선_17" data-name="선 17" x2="304" transform="translate(440 1291)" fill="none" stroke="#f1f1f1" stroke-linecap="round" stroke-width="1"/>
    <line id="선_14" data-name="선 14" x2="304" transform="translate(440 1363)" fill="none" stroke="#f1f1f1" stroke-linecap="round" stroke-width="1"/>
    <line id="선_16" data-name="선 16" x2="304" transform="translate(440 1315)" fill="none" stroke="#f1f1f1" stroke-linecap="round" stroke-width="1"/>
    <line id="선_18" data-name="선 18" x2="304" transform="translate(440 1267)" fill="none" stroke="#f1f1f1" stroke-linecap="round" stroke-width="1"/>
    <line id="선_24" data-name="선 24" y2="120" transform="translate(515.5 1267)" fill="none" stroke="#f8f8f8" stroke-width="1"/>
    <line id="선_27" data-name="선 27" y2="120" transform="translate(591.5 1267)" fill="none" stroke="#f8f8f8" stroke-width="1"/>
    <line id="선_30" data-name="선 30" y2="120" transform="translate(693.5 1267)" fill="none" stroke="#f8f8f8" stroke-width="1"/>
    <line id="선_20" data-name="선 20" y2="120" transform="translate(465.5 1267)" fill="none" stroke="#f8f8f8" stroke-width="1"/>
    <line id="선_23" data-name="선 23" y2="120" transform="translate(541.5 1267)" fill="none" stroke="#f8f8f8" stroke-width="1"/>
    <line id="선_26" data-name="선 26" y2="120" transform="translate(617.5 1267)" fill="none" stroke="#f8f8f8" stroke-width="1"/>
    <line id="선_29" data-name="선 29" y2="120" transform="translate(718.5 1267)" fill="none" stroke="#f8f8f8" stroke-width="1"/>
    <line id="선_21" data-name="선 21" y2="120" transform="translate(490.5 1267)" fill="none" stroke="#f8f8f8" stroke-width="1"/>
    <line id="선_22" data-name="선 22" y2="120" transform="translate(566.5 1267)" fill="none" stroke="#f8f8f8" stroke-width="1"/>
    <line id="선_31" data-name="선 31" y2="120" transform="translate(667.5 1267)" fill="none" stroke="#f8f8f8" stroke-width="1"/>
    <line id="선_25" data-name="선 25" y2="120" transform="translate(642.5 1267)" fill="none" stroke="#f8f8f8" stroke-width="1"/>
    <line id="선_28" data-name="선 28" y2="120" transform="translate(744 1267)" fill="none" stroke="#f8f8f8" stroke-width="1"/>
    <g id="그룹_343" data-name="그룹 343" transform="translate(0 36)" opacity="0.4">
      <line id="선_19" data-name="선 19" y2="120" transform="translate(440 1231)" fill="none" stroke="#f8f8f8" stroke-width="1"/>
      <rect id="사각형_127" data-name="사각형 127" width="20" height="8" rx="2" transform="translate(518 1340)" fill="rgba(254,92,120,0.2)"/>
      <rect id="사각형_129" data-name="사각형 129" width="20" height="8" rx="2" transform="translate(518 1316)" fill="rgba(254,92,120,0.5)"/>
      <rect id="사각형_128" data-name="사각형 128" width="20" height="8" rx="2" transform="translate(518 1330)" fill="rgba(254,92,120,0.4)"/>
      <rect id="사각형_112" data-name="사각형 112" width="20" height="8" rx="2" transform="translate(443 1340)" fill="rgba(254,92,120,0.2)"/>
      <rect id="사각형_115" data-name="사각형 115" width="20" height="8" rx="2" transform="translate(443 1316)" fill="rgba(254,92,120,0.5)"/>
      <rect id="사각형_113" data-name="사각형 113" width="20" height="8" rx="2" transform="translate(443 1330)" fill="rgba(254,92,120,0.4)"/>
      <rect id="사각형_114" data-name="사각형 114" width="20" height="8" rx="2" transform="translate(443 1306)" fill="rgba(254,92,120,0.6)"/>
      <rect id="사각형_119" data-name="사각형 119" width="20" height="8" rx="2" transform="translate(468 1340)" fill="rgba(254,92,120,0.2)"/>
      <rect id="사각형_117" data-name="사각형 117" width="20" height="8" rx="2" transform="translate(468 1316)" fill="rgba(254,92,120,0.5)"/>
      <rect id="사각형_118" data-name="사각형 118" width="20" height="8" rx="2" transform="translate(468 1330)" fill="rgba(254,92,120,0.4)"/>
      <rect id="사각형_116" data-name="사각형 116" width="20" height="8" rx="2" transform="translate(468 1306)" fill="rgba(254,92,120,0.6)"/>
      <rect id="사각형_120" data-name="사각형 120" width="20" height="8" rx="2" transform="translate(468 1292)" fill="rgba(254,92,120,0.8)"/>
      <rect id="사각형_125" data-name="사각형 125" width="20" height="8" rx="2" transform="translate(493 1340)" fill="rgba(254,92,120,0.2)"/>
      <rect id="사각형_123" data-name="사각형 123" width="20" height="8" rx="2" transform="translate(493 1316)" fill="rgba(254,92,120,0.5)"/>
      <rect id="사각형_124" data-name="사각형 124" width="20" height="8" rx="2" transform="translate(493 1330)" fill="rgba(254,92,120,0.4)"/>
      <rect id="사각형_122" data-name="사각형 122" width="20" height="8" rx="2" transform="translate(493 1306)" fill="rgba(254,92,120,0.6)"/>
      <rect id="사각형_121" data-name="사각형 121" width="20" height="8" rx="2" transform="translate(493 1292)" fill="rgba(254,92,120,0.8)"/>
      <rect id="사각형_126" data-name="사각형 126" width="20" height="8" rx="2" transform="translate(493 1282)" fill="rgba(254,92,120,0.8)"/>
      <rect id="사각형_135" data-name="사각형 135" width="20" height="8" rx="2" transform="translate(544 1340)" fill="rgba(254,92,120,0.2)"/>
      <rect id="사각형_133" data-name="사각형 133" width="20" height="8" rx="2" transform="translate(544 1316)" fill="rgba(254,92,120,0.5)"/>
      <rect id="사각형_134" data-name="사각형 134" width="20" height="8" rx="2" transform="translate(544 1330)" fill="rgba(254,92,120,0.4)"/>
      <rect id="사각형_132" data-name="사각형 132" width="20" height="8" rx="2" transform="translate(544 1306)" fill="rgba(254,92,120,0.6)"/>
      <rect id="사각형_131" data-name="사각형 131" width="20" height="8" rx="2" transform="translate(544 1292)" fill="rgba(254,92,120,0.8)"/>
      <rect id="사각형_136" data-name="사각형 136" width="20" height="8" rx="2" transform="translate(544 1268)" fill="rgba(254,92,120,0.9)"/>
      <rect id="사각형_130" data-name="사각형 130" width="20" height="8" rx="2" transform="translate(544 1282)" fill="rgba(254,92,120,0.8)"/>
      <rect id="사각형_137" data-name="사각형 137" width="20" height="8" rx="2" transform="translate(544 1258)" fill="rgba(254,92,120,0.9)"/>
      <rect id="사각형_138" data-name="사각형 138" width="20" height="8" rx="2" transform="translate(569 1340)" fill="rgba(254,92,120,0.2)"/>
      <rect id="사각형_140" data-name="사각형 140" width="20" height="8" rx="2" transform="translate(569 1316)" fill="rgba(254,92,120,0.5)"/>
      <rect id="사각형_139" data-name="사각형 139" width="20" height="8" rx="2" transform="translate(569 1330)" fill="rgba(254,92,120,0.4)"/>
      <rect id="사각형_141" data-name="사각형 141" width="20" height="8" rx="2" transform="translate(569 1306)" fill="rgba(254,92,120,0.6)"/>
      <rect id="사각형_142" data-name="사각형 142" width="20" height="8" rx="2" transform="translate(569 1292)" fill="rgba(254,92,120,0.8)"/>
      <rect id="사각형_144" data-name="사각형 144" width="20" height="8" rx="2" transform="translate(569 1268)" fill="rgba(254,92,120,0.9)"/>
      <rect id="사각형_143" data-name="사각형 143" width="20" height="8" rx="2" transform="translate(569 1282)" fill="rgba(254,92,120,0.8)"/>
      <rect id="사각형_145" data-name="사각형 145" width="20" height="8" rx="2" transform="translate(569 1258)" fill="rgba(254,92,120,0.9)"/>
      <rect id="사각형_146" data-name="사각형 146" width="20" height="8" rx="2" transform="translate(569 1244)" fill="#fe3c6a"/>
      <rect id="사각형_127-2" data-name="사각형 127" width="20" height="8" rx="2" transform="translate(671 1340)" fill="rgba(254,92,120,0.2)"/>
      <rect id="사각형_129-2" data-name="사각형 129" width="20" height="8" rx="2" transform="translate(671 1316)" fill="rgba(254,92,120,0.5)"/>
      <rect id="사각형_128-2" data-name="사각형 128" width="20" height="8" rx="2" transform="translate(671 1330)" fill="rgba(254,92,120,0.4)"/>
      <rect id="사각형_119-2" data-name="사각형 119" width="20" height="8" rx="2" transform="translate(721 1340)" fill="rgba(254,92,120,0.2)"/>
      <rect id="사각형_117-2" data-name="사각형 117" width="20" height="8" rx="2" transform="translate(721 1316)" fill="rgba(254,92,120,0.5)"/>
      <rect id="사각형_118-2" data-name="사각형 118" width="20" height="8" rx="2" transform="translate(721 1330)" fill="rgba(254,92,120,0.4)"/>
      <rect id="사각형_116-2" data-name="사각형 116" width="20" height="8" rx="2" transform="translate(721 1306)" fill="rgba(254,92,120,0.6)"/>
      <rect id="사각형_120-2" data-name="사각형 120" width="20" height="8" rx="2" transform="translate(721 1292)" fill="rgba(254,92,120,0.8)"/>
      <rect id="사각형_125-2" data-name="사각형 125" width="20" height="8" rx="2" transform="translate(696 1340)" fill="rgba(254,92,120,0.2)"/>
      <rect id="사각형_123-2" data-name="사각형 123" width="20" height="8" rx="2" transform="translate(696 1316)" fill="rgba(254,92,120,0.5)"/>
      <rect id="사각형_124-2" data-name="사각형 124" width="20" height="8" rx="2" transform="translate(696 1330)" fill="rgba(254,92,120,0.4)"/>
      <rect id="사각형_122-2" data-name="사각형 122" width="20" height="8" rx="2" transform="translate(696 1306)" fill="rgba(254,92,120,0.6)"/>
      <rect id="사각형_121-2" data-name="사각형 121" width="20" height="8" rx="2" transform="translate(696 1292)" fill="rgba(254,92,120,0.8)"/>
      <rect id="사각형_126-2" data-name="사각형 126" width="20" height="8" rx="2" transform="translate(696 1282)" fill="rgba(254,92,120,0.8)"/>
      <rect id="사각형_135-2" data-name="사각형 135" width="20" height="8" rx="2" transform="translate(645 1340)" fill="rgba(254,92,120,0.2)"/>
      <rect id="사각형_133-2" data-name="사각형 133" width="20" height="8" rx="2" transform="translate(645 1316)" fill="rgba(254,92,120,0.5)"/>
      <rect id="사각형_134-2" data-name="사각형 134" width="20" height="8" rx="2" transform="translate(645 1330)" fill="rgba(254,92,120,0.4)"/>
      <rect id="사각형_132-2" data-name="사각형 132" width="20" height="8" rx="2" transform="translate(645 1306)" fill="rgba(254,92,120,0.6)"/>
      <rect id="사각형_131-2" data-name="사각형 131" width="20" height="8" rx="2" transform="translate(645 1292)" fill="rgba(254,92,120,0.8)"/>
      <rect id="사각형_136-2" data-name="사각형 136" width="20" height="8" rx="2" transform="translate(645 1268)" fill="rgba(254,92,120,0.9)"/>
      <rect id="사각형_130-2" data-name="사각형 130" width="20" height="8" rx="2" transform="translate(645 1282)" fill="rgba(254,92,120,0.8)"/>
      <rect id="사각형_137-2" data-name="사각형 137" width="20" height="8" rx="2" transform="translate(645 1258)" fill="rgba(254,92,120,0.9)"/>
      <rect id="사각형_138-2" data-name="사각형 138" width="20" height="8" rx="2" transform="translate(620 1340)" fill="rgba(254,92,120,0.2)"/>
      <rect id="사각형_140-2" data-name="사각형 140" width="20" height="8" rx="2" transform="translate(620 1316)" fill="rgba(254,92,120,0.5)"/>
      <rect id="사각형_139-2" data-name="사각형 139" width="20" height="8" rx="2" transform="translate(620 1330)" fill="rgba(254,92,120,0.4)"/>
      <rect id="사각형_141-2" data-name="사각형 141" width="20" height="8" rx="2" transform="translate(620 1306)" fill="rgba(254,92,120,0.6)"/>
      <rect id="사각형_142-2" data-name="사각형 142" width="20" height="8" rx="2" transform="translate(620 1292)" fill="rgba(254,92,120,0.8)"/>
      <rect id="사각형_144-2" data-name="사각형 144" width="20" height="8" rx="2" transform="translate(620 1268)" fill="rgba(254,92,120,0.9)"/>
      <rect id="사각형_143-2" data-name="사각형 143" width="20" height="8" rx="2" transform="translate(620 1282)" fill="rgba(254,92,120,0.8)"/>
      <rect id="사각형_145-2" data-name="사각형 145" width="20" height="8" rx="2" transform="translate(620 1258)" fill="rgba(254,92,120,0.9)"/>
      <rect id="사각형_146-2" data-name="사각형 146" width="20" height="8" rx="2" transform="translate(620 1244)" fill="#fe3c6a"/>
      <rect id="사각형_147" data-name="사각형 147" width="20" height="8" rx="2" transform="translate(594 1340)" fill="rgba(254,92,120,0.2)"/>
      <rect id="사각형_149" data-name="사각형 149" width="20" height="8" rx="2" transform="translate(594 1316)" fill="rgba(254,92,120,0.5)"/>
      <rect id="사각형_148" data-name="사각형 148" width="20" height="8" rx="2" transform="translate(594 1330)" fill="rgba(254,92,120,0.4)"/>
      <rect id="사각형_150" data-name="사각형 150" width="20" height="8" rx="2" transform="translate(594 1306)" fill="rgba(254,92,120,0.6)"/>
      <rect id="사각형_151" data-name="사각형 151" width="20" height="8" rx="2" transform="translate(594 1292)" fill="rgba(254,92,120,0.8)"/>
      <rect id="사각형_153" data-name="사각형 153" width="20" height="8" rx="2" transform="translate(594 1268)" fill="rgba(254,92,120,0.9)"/>
      <rect id="사각형_152" data-name="사각형 152" width="20" height="8" rx="2" transform="translate(594 1282)" fill="rgba(254,92,120,0.8)"/>
      <rect id="사각형_154" data-name="사각형 154" width="20" height="8" rx="2" transform="translate(594 1258)" fill="rgba(254,92,120,0.9)"/>
      <rect id="사각형_155" data-name="사각형 155" width="20" height="8" rx="2" transform="translate(594 1244)" fill="#fe3c6a"/>
      <rect id="사각형_156" data-name="사각형 156" width="20" height="8" rx="2" transform="translate(594 1234)" fill="#fe3c6a"/>
    </g>
  </g>
</svg>
