<svg xmlns="http://www.w3.org/2000/svg" width="64" height="29" viewBox="0 0 64 29">
  <g id="합치기_1" data-name="합치기 1" transform="translate(1528 1493)" fill="#fff">
    <path d="M -1495.4921875 -1464.7529296875 L -1499.562377929688 -1469.33203125 L -1499.711547851562 -1469.499877929688 L -1499.93603515625 -1469.499877929688 L -1515.999633789062 -1469.499877929688 C -1519.071533203125 -1469.499877929688 -1521.95947265625 -1470.696166992188 -1524.131713867188 -1472.868408203125 C -1526.303955078125 -1475.04052734375 -1527.500244140625 -1477.928588867188 -1527.500244140625 -1481.00048828125 C -1527.500244140625 -1484.071899414062 -1526.303955078125 -1486.959716796875 -1524.131713867188 -1489.131713867188 C -1521.95947265625 -1491.303833007812 -1519.071411132812 -1492.500122070312 -1515.999633789062 -1492.500122070312 L -1476 -1492.500122070312 C -1472.92822265625 -1492.500122070312 -1470.040405273438 -1491.303833007812 -1467.868408203125 -1489.131713867188 C -1465.696533203125 -1486.959716796875 -1464.500366210938 -1484.072021484375 -1464.500366210938 -1481.00048828125 C -1464.500366210938 -1477.928588867188 -1465.696533203125 -1475.04052734375 -1467.868408203125 -1472.868286132812 C -1470.040405273438 -1470.696166992188 -1472.92822265625 -1469.499877929688 -1476 -1469.499877929688 L -1491.048461914062 -1469.499877929688 L -1491.27294921875 -1469.499877929688 L -1491.422241210938 -1469.33203125 L -1495.4921875 -1464.7529296875 Z" stroke="none"/>
    <path d="M -1495.4921875 -1465.505615234375 L -1491.49755859375 -1469.999877929688 L -1476 -1469.999877929688 C -1473.061767578125 -1469.999877929688 -1470.299560546875 -1471.144165039062 -1468.222045898438 -1473.221923828125 C -1466.14453125 -1475.299560546875 -1465.000366210938 -1478.062133789062 -1465.000366210938 -1481.00048828125 C -1465.000366210938 -1483.9384765625 -1466.14453125 -1486.70068359375 -1468.221923828125 -1488.778198242188 C -1470.299560546875 -1490.85595703125 -1473.061767578125 -1492.000122070312 -1476 -1492.000122070312 L -1515.999633789062 -1492.000122070312 C -1522.0654296875 -1492.000122070312 -1527.000244140625 -1487.065673828125 -1527.000244140625 -1481.00048828125 C -1527.000244140625 -1478.062133789062 -1525.85595703125 -1475.299682617188 -1523.778198242188 -1473.221923828125 C -1521.700439453125 -1471.144165039062 -1518.937866210938 -1469.999877929688 -1515.999633789062 -1469.999877929688 L -1499.486938476562 -1469.999877929688 L -1495.4921875 -1465.505615234375 M -1495.4921875 -1464.000366210938 L -1499.93603515625 -1468.999877929688 L -1515.999633789062 -1468.999877929688 C -1522.627197265625 -1468.999877929688 -1528.000244140625 -1474.372802734375 -1528.000244140625 -1481.00048828125 C -1528.000244140625 -1487.627197265625 -1522.627197265625 -1493.000122070312 -1515.999633789062 -1493.000122070312 L -1476 -1493.000122070312 C -1469.372436523438 -1493.000122070312 -1464.000366210938 -1487.627197265625 -1464.000366210938 -1481.00048828125 C -1464.000366210938 -1474.372802734375 -1469.372436523438 -1468.999877929688 -1476 -1468.999877929688 L -1491.048461914062 -1468.999877929688 L -1495.4921875 -1464.000366210938 Z" stroke="none" fill="#eeeff1"/>
  </g>
</svg>
