<svg id="구성_요소_1_1" data-name="구성 요소 1 – 1" xmlns="http://www.w3.org/2000/svg" xmlns:xlink="http://www.w3.org/1999/xlink" width="292.001" height="92" viewBox="0 0 292.001 92">
  <defs>
    <filter id="패스_164">
      <feOffset dy="3" input="SourceAlpha"/>
      <feGaussianBlur stdDeviation="3" result="blur"/>
      <feFlood flood-color="#6e9cbf" flood-opacity="0.161" result="color"/>
      <feComposite operator="out" in="SourceGraphic" in2="blur"/>
      <feComposite operator="in" in="color"/>
      <feComposite operator="in" in2="SourceGraphic"/>
    </filter>
  </defs>
  <g data-type="innerShadowGroup">
    <path id="패스_164-2" data-name="패스 164" d="M472.542,145.939a5.99,5.99,0,0,1-4.98-2.647,212.876,212.876,0,0,0-36.528-38.97c-21-17.51-54.682-38.383-95.859-38.383-79.495,0-137.241,76.793-137.815,77.569a6,6,0,0,1-9.647-7.138c.624-.843,15.567-20.872,41.126-41.133,34.082-27.017,70.853-41.3,106.336-41.3,35.542,0,71.442,14.315,103.82,41.4,24.283,20.311,37.947,40.4,38.517,41.248a6,6,0,0,1-4.97,9.354Z" transform="translate(-186.536 -53.939)" fill="#eeeff1"/>
    <g transform="matrix(1, 0, 0, 1, 0, 0)" filter="url(#패스_164)">
      <path id="패스_164-3" data-name="패스 164" d="M472.542,145.939a5.99,5.99,0,0,1-4.98-2.647,212.876,212.876,0,0,0-36.528-38.97c-21-17.51-54.682-38.383-95.859-38.383-79.495,0-137.241,76.793-137.815,77.569a6,6,0,0,1-9.647-7.138c.624-.843,15.567-20.872,41.126-41.133,34.082-27.017,70.853-41.3,106.336-41.3,35.542,0,71.442,14.315,103.82,41.4,24.283,20.311,37.947,40.4,38.517,41.248a6,6,0,0,1-4.97,9.354Z" transform="translate(-186.54 -53.94)" fill="#fff"/>
    </g>
  </g>
</svg>
